<?xml version="1.0" standalone="no"?>
<!DOCTYPE svg PUBLIC "-//W3C//DTD SVG 20010904//EN"
 "http://www.w3.org/TR/2001/REC-SVG-20010904/DTD/svg10.dtd">
<svg version="1.0" xmlns="http://www.w3.org/2000/svg"
 width="200.000000pt" height="200.000000pt" viewBox="0 0 200.000000 200.000000"
 preserveAspectRatio="xMidYMid meet">
<metadata>
Created by potrace 1.11, written by Peter Selinger 2001-2013
</metadata>
<g transform="translate(0.000000,200.000000) scale(0.100000,-0.100000)"
fill="#000000" stroke="none">
<path d="M814 1880 c-334 -75 -598 -328 -685 -658 -29 -108 -33 -289 -9 -402
66 -319 307 -584 615 -680 98 -30 142 -35 290 -34 110 1 144 5 218 28 299 90
526 311 617 601 30 97 35 141 34 285 0 97 -6 143 -23 204 -96 343 -360 590
-706 662 -75 15 -271 12 -351 -6z m316 -54 c414 -69 712 -424 704 -841 -6
-308 -172 -578 -445 -724 -132 -70 -240 -95 -409 -94 -447 3 -814 378 -814
833 0 297 151 563 408 718 161 97 372 138 556 108z"/>
<path d="M510 1324 c0 -3 102 -182 227 -397 125 -216 233 -405 241 -420 8 -16
18 -25 23 -20 6 6 445 760 480 826 9 16 -17 17 -481 17 -269 0 -490 -3 -490
-6z"/>
</g>
</svg>
